<svg width="40" height="40" viewBox="0 0 40 40" fill="none" xmlns="http://www.w3.org/2000/svg">
<circle cx="20" cy="20" r="20" fill="#FCD7B3"></circle>
<path d="M21.978 11H22.2818C23.1163 11 23.7929 11.6766 23.7929 12.5111C23.7929 13.3456 23.1163 14.0222 22.2818 14.0222H21.978V17.9781L26.9644 25.9634C27.9065 27.4721 26.8219 29.4285 25.0431 29.4285H19.6559H14.2688C12.49 29.4285 11.4053 27.4721 12.3475 25.9634L17.3339 17.9781V14.0222H17.0301C16.1955 14.0222 15.519 13.3456 15.519 12.5111C15.519 11.6766 16.1955 11 17.0301 11H21.978Z" stroke="#252525" stroke-width="1.6" stroke-linecap="round" stroke-linejoin="round"></path>
<path d="M14.7539 22.1095C20.6508 20.1898 18.8642 25.4926 25.1757 23.0991" stroke="#252525" stroke-width="1.6" stroke-linecap="round" stroke-linejoin="round"></path>
<path d="M21.9776 15.5215H20.4414" stroke="#252525" stroke-width="1.6" stroke-linecap="round" stroke-linejoin="round"></path>
<path d="M21.9776 17.9785H20.4414" stroke="#252525" stroke-width="1.6" stroke-linecap="round" stroke-linejoin="round"></path>
<path d="M16.9158 25.8746C17.4302 25.8746 17.8472 25.4576 17.8472 24.9432C17.8472 24.4287 17.4302 24.0117 16.9158 24.0117C16.4014 24.0117 15.9844 24.4287 15.9844 24.9432C15.9844 25.4576 16.4014 25.8746 16.9158 25.8746Z" fill="#252525"></path>
<path d="M21.5428 27.7374C22.0572 27.7374 22.4742 27.3204 22.4742 26.8059C22.4742 26.2915 22.0572 25.8745 21.5428 25.8745C21.0283 25.8745 20.6113 26.2915 20.6113 26.8059C20.6113 27.3204 21.0283 27.7374 21.5428 27.7374Z" fill="#252525"></path>
</svg>
